<svg width="300" height="320" viewBox="0 0 300 320" fill="none" xmlns="http://www.w3.org/2000/svg">
<path d="M200 160H100V320H200V160Z" fill="#262626"/>
<path d="M100 260H0V320H100V260Z" fill="#262626"/>
<path d="M100 260H50V320H100V260Z" fill="#C4C4C4"/>
<path d="M200 160H150V320H200V160Z" fill="#999999"/>
<path d="M200 160H150V130H170L200 160Z" fill="#BFBFBF" fill-opacity="0.59"/>
<path d="M100 160H150V130H130L100 160Z" fill="#666666"/>
<path d="M300 210H200V320H300V210Z" fill="#262626"/>
<path d="M300 210H250V320H300V210Z" fill="#C4C4C4"/>
<path d="M80.361 79.9991C86.7333 79.9991 91.899 74.8334 91.899 68.4611C91.899 62.0888 86.7333 56.9231 80.361 56.9231C73.9887 56.9231 68.823 62.0888 68.823 68.4611C68.823 74.8334 73.9887 79.9991 80.361 79.9991Z" fill="black"/>
<path d="M73.437 66.154C86.1821 66.154 96.514 55.8221 96.514 43.077C96.514 30.3319 86.1821 20 73.437 20C60.6919 20 50.36 30.3319 50.36 43.077C50.36 55.8221 60.6919 66.154 73.437 66.154Z" fill="black"/>
<path d="M73.4369 52.3079C78.5351 52.3079 82.6679 48.1751 82.6679 43.0769C82.6679 37.9788 78.5351 33.8459 73.4369 33.8459C68.3388 33.8459 64.2059 37.9788 64.2059 43.0769C64.2059 48.1751 68.3388 52.3079 73.4369 52.3079Z" fill="white"/>
<path d="M219.639 79.9991C226.011 79.9991 231.177 74.8334 231.177 68.4611C231.177 62.0888 226.011 56.9231 219.639 56.9231C213.267 56.9231 208.101 62.0888 208.101 68.4611C208.101 74.8334 213.267 79.9991 219.639 79.9991Z" fill="#666666"/>
<path d="M226.562 66.154C239.307 66.154 249.639 55.8221 249.639 43.077C249.639 30.3319 239.307 20 226.562 20C213.817 20 203.485 30.3319 203.485 43.077C203.485 55.8221 213.817 66.154 226.562 66.154Z" fill="#666666"/>
<path d="M226.562 52.3079C231.66 52.3079 235.793 48.1751 235.793 43.0769C235.793 37.9788 231.66 33.8459 226.562 33.8459C221.464 33.8459 217.331 37.9788 217.331 43.0769C217.331 48.1751 221.464 52.3079 226.562 52.3079Z" fill="white"/>
<path d="M80 17.272V30C80 68.66 111.34 100 150 100C188.66 100 220 68.66 220 30V17.272H80Z" fill="#BFBFBF" fill-opacity="0.59"/>
<path d="M150 17.272H80V30C80 68.66 111.34 100 150 100V17.272Z" fill="#666666"/>
<path d="M150 0H80V20H150V0Z" fill="black"/>
<path d="M220 0H150V20H220V0Z" fill="#666666"/>
<path d="M150 90H130V130H150V90Z" fill="#666666"/>
<path d="M170 90H150V130H170V90Z" fill="#BFBFBF" fill-opacity="0.59"/>
<path d="M150 280H130V300H150V280Z" fill="#666666"/>
<path d="M169.5 280.5V299.5H150.5V280.5H169.5Z" fill="#BFBFBF" fill-opacity="0.59" stroke="black"/>
<path d="M50 280H30V300H50V280Z" fill="#666666"/>
<path d="M69.5 280.5V299.5H50.5V280.5H69.5Z" fill="#BFBFBF" fill-opacity="0.59" stroke="black"/>
<path d="M250 280H230V300H250V280Z" fill="#666666"/>
<path d="M269.5 280.5V299.5H250.5V280.5H269.5Z" fill="#C4C4C4" stroke="black"/>
</svg>
